# xmcd
#
# Track frame offsets:
#  150
#  22258
#  35973
#  56743
#  67418
#  84213
#  98865
#  113860
#  129858
#  145748
#  162503
#  182400
#
# Disc length: 2757 seconds
#
# Revision: 0
# Processed by: cddbd v1.5.1PL2 Copyright (c) Steve Scherf et al.
# Submitted via: Collectorz.com_Music_Collector 6.10
#
DISCID=ab0ac30c
DTITLE=Leslie Cheung - 張國榮精粹金曲 [CD5)
DYEAR=1992
DGENRE=Pop Canton
TTITLE0=張國榮 - 陳潔靈 - 誰令我心痴
TTITLE1=柔情蜜意
TTITLE2=誰負了誰
TTITLE3=一盞小明燈
TTITLE4=共你別離
TTITLE5=緣份有幾多
TTITLE6=流浪
TTITLE7=讓我飛
TTITLE8=刻骨銘心
TTITLE9=寂寞獵人
TTITLE10=Crazy Rock
TTITLE11=全賴有你
EXTD=
EXTT0=
EXTT1=
EXTT2=
EXTT3=
EXTT4=
EXTT5=
EXTT6=
EXTT7=
EXTT8=
EXTT9=
EXTT10=
EXTT11=
PLAYORDER=
